<?xml version="1.0" encoding="UTF-8" standalone="no"?>
<!-- Created with Inkscape (http://www.inkscape.org/) -->

<svg
   version="1.1"
   id="svg1"
   width="191"
   height="266"
   viewBox="0 0 191 266"
   sodipodi:docname="4b.svg"
   inkscape:version="1.4.2 (f4327f4, 2025-05-13)"
   xmlns:inkscape="http://www.inkscape.org/namespaces/inkscape"
   xmlns:sodipodi="http://sodipodi.sourceforge.net/DTD/sodipodi-0.dtd"
   xmlns="http://www.w3.org/2000/svg"
   xmlns:svg="http://www.w3.org/2000/svg">
  <defs
     id="defs1" />
  <sodipodi:namedview
     id="namedview1"
     pagecolor="#ffffff"
     bordercolor="#000000"
     borderopacity="0.25"
     inkscape:showpageshadow="2"
     inkscape:pageopacity="0.0"
     inkscape:pagecheckerboard="0"
     inkscape:deskcolor="#d1d1d1"
     inkscape:zoom="2.8909774"
     inkscape:cx="95.642393"
     inkscape:cy="133"
     inkscape:window-width="1920"
     inkscape:window-height="989"
     inkscape:window-x="-9"
     inkscape:window-y="-9"
     inkscape:window-maximized="1"
     inkscape:current-layer="g1" />
  <g
     inkscape:groupmode="layer"
     inkscape:label="Image"
     id="g1">
    <path
       style="fill:#ff00ff"
       d="m 103.59811,220.10436 c 0.004,-0.27947 1.02495,-1.54717 2.26926,-2.8171 3.00959,-3.07155 4.4044,-8.10351 4.0306,-14.54097 -0.34144,-5.88036 0.44545,-14.13921 1.7042,-17.88643 0.90273,-2.68735 0.8836,-2.80285 -0.63746,-3.84964 -1.77217,-1.21961 -2.00883,-3.4277 -0.58002,-5.41182 1.52235,-2.11401 1.14628,-2.74582 -2.43942,-4.09835 -2.4609,-0.92826 -4.5324,-2.4925 -7.57923,-5.72324 -2.306026,-2.44522 -4.538537,-5.05561 -4.96114,-5.80087 -0.686761,-1.21109 -0.772397,-1.07756 -0.806301,1.25722 -0.05589,3.84898 1.590844,9.82599 4.553363,16.52692 5.880508,13.30114 7.664488,19.16771 7.664488,25.20448 0,4.37345 -1.1947,9.51789 -2.21036,9.51789 -0.55413,0 -0.69504,-1.64593 -0.50752,-5.92816 0.30741,-7.01974 -0.93577,-11.55914 -6.651272,-24.28668 -4.336756,-9.6573 -6.276308,-16.17058 -6.366096,-21.37822 -0.07139,-4.14079 -0.350386,-4.62977 -1.680865,-2.94596 -0.441653,0.55894 -1.202866,1.01626 -1.691585,1.01626 -1.138632,0 -1.121156,0.73173 0.07501,3.1407 0.529973,1.06731 0.965376,2.40627 0.967562,2.97545 0.0062,1.60634 -1.890062,4.06353 -3.690781,4.78261 -1.436413,0.57361 -1.585319,0.93628 -1.256976,3.06145 0.553609,3.58318 2.478031,7.26452 7.931399,15.17243 6.772038,9.82011 8.289686,13.35063 8.300186,19.30884 0.007,3.98045 -0.281045,5.25965 -1.792689,7.96066 -0.990579,1.76998 -2.224221,3.21814 -2.741424,3.21814 -1.231476,0 -1.220046,-0.0605 0.728672,-3.85979 3.207804,-6.25398 1.46801,-12.12241 -7.279152,-24.553 -6.259376,-8.89521 -7.670837,-11.55077 -8.626179,-16.22956 -0.569973,-2.79144 -0.99737,-3.47344 -2.527948,-4.03386 -2.8898,-1.05808 -3.579439,-3.07996 -1.978535,-5.80064 0.729663,-1.24003 1.32666,-2.40586 1.32666,-2.59072 0,-0.18486 -1.378775,-0.87557 -3.063945,-1.53491 -5.730587,-2.24214 -10.75308,-7.23752 -14.176632,-14.10008 -8.320644,-16.67886 -0.260845,-36.39162 16.308121,-39.8866 l 3.512621,-0.74094 v -3.15164 c 0,-9.988094 5.629219,-19.858444 13.846466,-24.278585 4.647138,-2.499742 12.154874,-2.884036 17.210394,-0.880936 4.81982,1.909714 9.08097,5.952306 11.31838,10.737854 1.68482,3.603642 1.80819,4.434146 1.78278,12.00159 -0.0228,6.800477 -0.26941,8.794827 -1.50775,12.195057 -2.37064,6.50937 -2.42619,6.08633 0.97845,7.452 1.73342,0.69532 4.39988,2.6177 6.08304,4.38557 7.39054,7.76248 8.27284,21.98649 2.16865,34.96213 -2.39312,5.08705 -8.12905,12.48184 -9.68181,12.48184 -1.15344,0 -1.1331,0.65776 0.0721,2.33137 1.25808,1.74705 1.20484,5.43111 -0.0983,6.7998 -0.57492,0.60385 -1.90078,1.27762 -2.94637,1.49726 -1.04558,0.21964 -2.30204,1.04308 -2.79212,1.82987 -1.697,2.72435 -2.89174,9.44439 -2.89947,16.30855 -0.012,10.63892 -1.75087,15.81722 -6.43619,19.1665 -2.20036,1.57292 -3.23684,1.89954 -3.2249,1.01626 z m 16.00742,-43.3975 c 0.28773,-2.13189 -0.96757,-3.5196 -3.18379,-3.5196 -1.51357,0 -2.02393,0.44353 -2.8237,2.454 -0.53692,1.3497 -0.97622,2.58514 -0.97622,2.74542 0,0.16028 1.52391,0.19926 3.38646,0.0866 2.97591,-0.17995 3.41202,-0.39411 3.59725,-1.76645 z m -0.99636,-7.86142 c 3.01283,-1.38518 5.09741,-3.56159 8.12397,-8.48188 3.54202,-5.75827 5.23991,-11.68473 5.23991,-18.28985 0,-7.09664 -1.39057,-11.65298 -4.71973,-15.46468 -3.56533,-4.08209 -7.30869,-5.7898 -12.68133,-5.78516 -12.61256,0.0109 -21.886166,12.92887 -19.408483,27.0357 1.464315,8.33716 7.547683,16.9233 14.345243,20.24706 3.92365,1.91852 6.14264,2.09867 9.10042,0.73881 z m -7.16738,-2.64893 c -1.80524,-2.01829 -1.89555,-3.49796 -0.15374,-2.51886 1.18672,0.66708 2.40096,3.19451 1.82523,3.79921 -0.14925,0.15677 -0.90142,-0.41939 -1.67149,-1.28035 z m 5.74793,-1.60744 c -0.0557,-3.7262 0.93719,-5.42811 1.58508,-2.71682 0.21199,0.88713 -0.0461,2.65264 -0.57351,3.92335 l -0.95895,2.31038 z m -3.09977,1.4479 c -0.44283,-0.84058 -0.50925,-1.7719 -0.16774,-2.35228 0.47305,-0.80393 0.63255,-0.77679 0.97711,0.16631 0.22647,0.61989 0.30196,1.67841 0.16774,2.35227 -0.22427,1.12596 -0.30342,1.11249 -0.97711,-0.1663 z m -12.15172,-7.24666 c -0.97223,-1.21103 -2.17429,-3.22111 -2.671245,-4.46683 -1.735626,-4.35069 -0.420412,-3.66539 2.842895,1.48133 3.31315,5.22531 3.20042,7.18585 -0.17165,2.9855 z m 23.24005,-0.84688 c 2.57,-6.42245 3.11539,-9.10957 3.0939,-15.24382 -0.0124,-3.53995 -0.35397,-7.31697 -0.75904,-8.39338 -1.27185,-3.37963 -0.13993,-2.81968 1.32328,0.65462 2.15816,5.12439 2.0001,12.87461 -0.37523,18.3996 -0.99893,2.32351 -2.26824,4.61009 -2.82069,5.08128 -0.86527,0.738 -0.92931,0.66896 -0.46222,-0.4983 z m -40.42224,8.33329 c 1.040809,-1.09318 0.95657,-1.94889 -0.369115,-3.74948 -0.901718,-1.22475 -1.465239,-1.4147 -2.95182,-0.99498 -2.055202,0.58026 -4.202106,4.52123 -2.792073,5.12527 1.519353,0.65088 5.358451,0.41172 6.113008,-0.38081 z m -2.204698,-8.73237 c 1.393621,-0.40643 3.868668,-2.07091 5.581159,-3.75335 l 3.077058,-3.02308 -0.0053,-6.23604 c -0.0057,-6.7577 1.292114,-11.64163 4.352184,-16.37783 1.860908,-2.88021 1.92622,-3.80689 0.564206,-8.00534 -1.120445,-3.45382 -4.817416,-7.87642 -8.137964,-9.73526 -3.304896,-1.85008 -12.210318,-1.70897 -15.998477,0.2535 -6.75934,3.5017 -10.955595,10.40368 -11.472936,18.87064 -0.365945,5.98917 0.507501,9.89596 3.498163,15.64674 2.493492,4.79476 6.663507,8.93869 11.436774,11.36523 3.845847,1.95507 3.823208,1.9519 7.105115,0.99479 z m -5.35997,-3.0798 c -1.344801,-1.79568 -1.832521,-4.98991 -0.761896,-4.98991 0.316251,0 1.104399,1.29573 1.751439,2.87939 0.64704,1.58367 1.283283,3.10805 1.413874,3.38752 0.597985,1.27971 -1.206832,0.32077 -2.403417,-1.277 z m 2.941518,0.0815 c -0.613844,-1.68016 -0.490794,-3.7164 0.224581,-3.7164 0.915447,0 1.582438,3.36436 0.824762,4.16016 -0.424868,0.44625 -0.778871,0.29655 -1.049343,-0.44376 z m 2.400282,-1.59655 c 0.17322,-1.62878 0.628121,-3.29036 1.010891,-3.69239 1.142867,-1.20039 0.846224,3.82806 -0.314946,5.33869 -0.947222,1.23229 -0.991055,1.1286 -0.695945,-1.6463 z m -13.285925,-4.18546 c -1.288436,-1.11549 -3.141643,-3.77473 -4.118236,-5.90943 -2.311412,-5.05243 -2.450452,-11.79236 -0.338629,-16.41508 0.838766,-1.83603 1.277982,-2.37502 1.104174,-1.355 -1.761542,10.33785 -0.289739,17.66864 4.657351,23.19741 2.330969,2.60505 1.501481,2.91156 -1.30466,0.4821 z m 42.925153,-30.95337 4.21913,-0.35572 1.67477,-3.9197 c 7.44254,-17.418779 -2e-4,-34.737396 -14.88974,-34.647175 -10.60644,0.06427 -18.778333,8.967245 -19.452126,21.192375 -0.262652,4.7655 -0.1651,5.37948 0.917131,5.77225 8.064097,2.92671 11.766914,6.17058 14.518421,12.71895 l 1.491644,3.55 3.65082,-1.97764 c 2.50581,-1.35738 4.97407,-2.08919 7.86995,-2.33334 z m 3.23909,-6.00614 c 1.26896,-6.28419 1.83444,-11.922145 1.53907,-15.344812 -0.41925,-4.85823 0.49089,-4.478837 1.4997,0.625151 0.81103,4.103301 0.52658,7.484541 -1.05815,12.578491 -1.1428,3.67341 -2.6104,5.25997 -1.98062,2.14117 z M 88.001204,94.256506 c -0.575727,-0.604701 1.162055,-4.843595 3.053442,-7.448125 3.037105,-4.18224 10.482454,-6.653844 16.209344,-5.380955 2.33725,0.519489 2.23541,0.568483 -2.12062,1.020268 -2.51668,0.261016 -5.854764,1.079276 -7.417977,1.818355 -3.22003,1.522413 -7.490612,5.793849 -8.572715,8.57443 -0.398902,1.02502 -0.917065,1.662232 -1.151474,1.416027 z"
       id="path1" />
  </g>
</svg>
