<?xml version="1.0" encoding="UTF-8" standalone="no"?>
<!-- Created with Inkscape (http://www.inkscape.org/) -->

<svg
   version="1.1"
   id="svg1"
   width="204"
   height="249"
   viewBox="0 0 204 249"
   sodipodi:docname="5b.svg"
   inkscape:version="1.4.2 (f4327f4, 2025-05-13)"
   xmlns:inkscape="http://www.inkscape.org/namespaces/inkscape"
   xmlns:sodipodi="http://sodipodi.sourceforge.net/DTD/sodipodi-0.dtd"
   xmlns="http://www.w3.org/2000/svg"
   xmlns:svg="http://www.w3.org/2000/svg">
  <defs
     id="defs1" />
  <sodipodi:namedview
     id="namedview1"
     pagecolor="#ffffff"
     bordercolor="#000000"
     borderopacity="0.25"
     inkscape:showpageshadow="2"
     inkscape:pageopacity="0.0"
     inkscape:pagecheckerboard="0"
     inkscape:deskcolor="#d1d1d1"
     inkscape:zoom="3.0883534"
     inkscape:cx="101.9961"
     inkscape:cy="124.5"
     inkscape:window-width="1920"
     inkscape:window-height="989"
     inkscape:window-x="-9"
     inkscape:window-y="-9"
     inkscape:window-maximized="1"
     inkscape:current-layer="g1" />
  <g
     inkscape:groupmode="layer"
     inkscape:label="Image"
     id="g1">
    <path
       style="fill:#ff00ff"
       d="m 80.010455,184.4922 c 0.01143,-1.95616 2.869996,-6.67244 6.325284,-10.43594 5.40735,-5.88969 5.634744,-7.56246 2.425662,-17.84383 -2.88487,-9.24264 -2.752565,-12.06334 0.767926,-16.37199 1.355359,-1.65879 2.657749,-3.57921 2.894199,-4.26761 0.933616,-2.71811 1.492948,-1.6584 4.676599,8.86021 1.237501,4.08864 0.924257,13.72485 -0.570668,17.55527 -0.693365,1.77659 -1.051064,3.23017 -0.794887,3.23017 0.256177,0 1.618769,-0.91195 3.027982,-2.02655 4.057888,-3.20955 6.251608,-8.31518 4.820118,-11.2183 -0.57499,-1.16609 -0.54317,-1.53963 0.16652,-1.95453 1.09027,-0.63741 1.27286,-0.63713 2.36915,0.004 0.70985,0.41494 0.74476,0.77263 0.17736,1.81715 -0.81794,1.5057 -2.15003,6.09933 -1.84931,6.37721 0.2567,0.2372 6.61257,-6.75858 7.60603,-8.3718 1.60306,-2.60314 0.48855,-10.04597 -1.71819,-11.47421 -1.23242,-0.79765 -1.53874,-2.63697 -0.53465,-3.21039 0.33737,-0.19266 1.14781,-0.19356 1.80099,-0.002 0.9267,0.27178 1.19016,0.86596 1.19925,2.70466 0.006,1.296 0.36868,3.86762 0.80504,5.71472 l 0.79339,3.35835 2.75453,-4.201 c 3.37472,-5.1469 5.72706,-9.76873 6.23027,-12.24115 0.5763,-2.83152 -0.81794,-5.15053 -6.37846,-10.60913 -2.77053,-2.71976 -5.80181,-5.71729 -6.73618,-6.6612 -0.93437,-0.9439 -2.27142,-3.21906 -2.97123,-5.05592 -1.12855,-2.96224 -1.19088,-3.67708 -0.55145,-6.32436 0.73151,-3.02846 3.62553,-6.846314 5.18965,-6.846314 0.44332,0 1.38257,1.619348 2.10867,3.635517 1.6216,4.502757 4.40502,9.863517 6.77173,13.042097 2.0694,2.77929 4.7851,9.10316 4.7851,11.14275 0,2.32236 1.07251,1.55916 1.79425,-1.2768 0.37351,-1.46762 1.31643,-4.91404 2.09539,-7.6587 1.77548,-6.25591 1.46637,-7.76051 -2.99128,-14.560337 -4.53795,-6.922293 -5.01185,-10.319804 -2.18864,-15.690789 1.59178,-3.028264 6.75962,-8.5224 7.43192,-7.901171 0.27847,0.257318 0.95639,4.002568 1.50648,8.322779 0.96239,7.558314 0.92288,17.515308 -0.0802,20.213838 -0.23312,0.62713 0.67819,0.007 2.06258,-1.40442 1.36412,-1.39038 2.3645,-2.8401 2.22305,-3.221604 -0.30066,-0.810965 1.48063,-1.796724 2.58533,-1.430708 1.42188,0.471107 0.76616,2.290852 -1.2159,3.374332 -3.37006,1.84221 -5.3488,5.21916 -7.56012,12.90224 -1.12082,3.89419 -1.93952,7.17121 -1.81933,7.28227 0.12019,0.11106 2.23978,-1.6817 4.71019,-3.98392 2.47041,-2.30223 5.11297,-4.44745 5.87235,-4.76716 0.76107,-0.32042 1.3807,-1.08206 1.3807,-1.69712 0,-1.44009 1.80782,-2.36533 3.20745,-1.64156 2.26188,1.16965 0.72599,4.35402 -1.68731,3.4983 -0.60808,-0.21561 -3.29057,1.8954 -8.05536,6.33925 l -7.14369,6.66251 -3.44959,7.44171 c -1.89727,4.09295 -3.31121,7.44172 -3.14207,7.44172 0.31868,0 5.75097,-3.94396 6.28769,-4.565 0.91524,-1.05903 10.47353,-7.01571 13.07095,-8.14575 6.78596,-2.95232 16.35085,-0.74798 20.17883,4.65045 1.39032,1.96072 0.40802,2.38964 -4.67794,2.04262 -5.19486,-0.35444 -12.06061,1.18209 -18.99467,4.25095 -7.67076,3.39491 -9.29126,3.92812 -13.17067,4.33369 -4.12197,0.43092 -6.08964,1.44799 -8.11652,4.19534 -0.78927,1.06981 -2.48471,3.29129 -3.76767,4.93663 l -2.33264,2.99152 2.06571,-0.79673 c 1.13614,-0.43821 3.16002,-0.97317 4.49751,-1.1888 1.3375,-0.21564 3.29995,-0.80795 4.36102,-1.31624 1.60256,-0.76769 2.09152,-0.7997 2.88777,-0.18907 1.28302,0.98392 1.20755,1.90048 -0.25734,3.12549 -1.17216,0.9802 -1.25953,0.9803 -2.42842,0.003 -1.15696,-0.96751 -1.38671,-0.97014 -5.0156,-0.0575 -5.22672,1.31449 -8.26741,2.89447 -12.53817,6.51498 -2.00455,1.69935 -4.689292,3.82216 -5.966097,4.71734 -1.276806,0.89519 -1.774308,1.43802 -1.105562,1.20629 7.329179,-2.53961 7.927149,-2.63938 15.618759,-2.60608 8.50922,0.0368 12.33551,0.62514 15.81348,2.43138 4.1173,2.13826 2.72133,2.93496 -3.26636,1.86416 -2.02662,-0.36242 -6.45654,0.78598 -11.48171,2.97651 -9.8574,4.29694 -14.943705,4.99238 -21.430458,2.93015 l -3.416761,-1.08624 -2.057754,2.6311 c -1.131765,1.44711 -2.704892,3.85036 -3.495837,5.34057 -1.602511,3.01925 -2.397047,3.76423 -2.388135,2.23916 z m 23.816805,-10.54386 c 1.87432,-0.45111 5.79794,-1.84055 8.71917,-3.08764 3.08911,-1.31875 6.86755,-2.46138 9.03089,-2.731 l 3.71959,-0.46358 -4.55964,-0.40192 c -9.38021,-0.82684 -13.90754,-0.83878 -17.5835,-0.0464 -3.910382,0.84293 -10.27385,3.54827 -11.464553,4.87399 -0.994881,1.10769 9.515413,-0.66504 17.584503,-2.96591 3.35882,-0.95776 6.24658,-1.61235 6.41725,-1.45465 0.61358,0.56697 -15.11786,4.66382 -22.007545,5.7313 -2.01082,0.31155 -2.221313,0.45557 -1.215903,0.8319 1.975777,0.73955 7.696938,0.59545 11.359738,-0.28611 z m -9.127289,-10.8426 c 1.841335,-4.92559 1.959169,-14.04057 0.263179,-20.35801 -0.622105,-2.31729 -1.312844,-4.40086 -1.534974,-4.63014 -0.619708,-0.63967 -4.243419,4.03087 -5.044634,6.50194 -0.638075,1.96793 -0.44984,3.13248 1.819481,11.25654 l 2.531187,9.06152 -0.362887,-9.89322 c -0.238369,-6.49856 -0.143324,-10.25574 0.276994,-10.94976 1.102913,-1.82108 1.244844,19.24043 0.147629,21.9071 -0.345798,0.84043 -0.377289,1.38446 -0.06998,1.20896 0.307309,-0.1755 1.195612,-2.02272 1.974004,-4.10493 z m 39.985219,-24.55402 c 9.21711,-3.96764 12.48516,-4.79228 18.99181,-4.79228 2.94867,0 5.36122,-0.14446 5.36122,-0.32101 0,-1.16002 -4.26766,-3.48222 -8.09032,-4.40226 -5.86745,-1.41218 -10.21877,0.0763 -19.2675,6.59082 -2.17343,1.56473 -4.06568,2.92224 -4.205,3.01667 -0.13932,0.0944 -0.13255,0.28328 0.015,0.41966 0.1476,0.13639 2.17664,-0.65607 4.50898,-1.76101 6.08159,-2.88114 14.1074,-5.60675 17.47316,-5.934 3.80329,-0.36978 4.31725,0.46739 0.59214,0.96453 -4.85438,0.64786 -9.12035,1.97991 -16.18016,5.0523 -3.72009,1.61895 -7.78972,3.25465 -9.04362,3.63487 -1.2539,0.38023 -2.27982,0.83042 -2.27982,1.00044 0,0.89471 5.92638,-0.80085 12.12407,-3.46873 z m -11.12801,-14.62323 c -0.19247,-0.46346 -0.11376,-0.84266 0.1749,-0.84266 1.38451,0 -1.45629,-6.48134 -5.37671,-12.26705 -2.04802,-3.02244 -3.34136,-5.59762 -6.64985,-13.240589 -0.40597,-0.937853 -0.6398,-0.798441 -1.88439,1.123538 -3.72838,5.757621 -2.02245,10.303721 7.25291,19.328191 3.3344,3.24421 6.06987,6.08816 6.0788,6.31989 0.009,0.23173 0.18229,0.42133 0.38526,0.42133 0.20296,0 0.21154,-0.37919 0.0191,-0.84265 z m -4.8993,-6.26812 c -4.15633,-5.19395 -6.49597,-10.39263 -6.34914,-14.10779 0.0563,-1.42498 0.15838,-1.64575 0.31919,-0.69041 0.90548,5.37933 4.03843,11.44793 9.208,17.83615 0.8126,1.00416 1.30568,1.82575 1.09574,1.82575 -0.20995,0 -2.13316,-2.18867 -4.27379,-4.8637 z m 11.23087,-23.108189 c -0.68646,-2.484352 -1.21262,-5.865262 -1.16924,-7.513133 l 0.0789,-2.996129 0.52313,3.93238 c 0.28772,2.162809 1.03711,5.828349 1.66532,8.145644 l 1.14219,4.213267 0.46965,-2.773087 c 0.42137,-2.487973 -0.2778,-10.92683 -1.44396,-17.428404 l -0.39907,-2.224895 -2.38104,2.68501 c -3.89283,4.389799 -5.1693,9.594405 -3.32363,13.551552 0.29088,0.623647 1.14916,2.049719 1.90728,3.169049 0.75812,1.11933 1.92556,2.846045 2.59431,3.837145 l 1.2159,1.802 0.18419,-1.9417 c 0.1013,-1.067931 -0.37746,-3.974348 -1.06391,-6.458699 z"
       id="path1" />
  </g>
</svg>
