<?xml version="1.0" encoding="UTF-8" standalone="no"?>
<!-- Created with Inkscape (http://www.inkscape.org/) -->

<svg
   version="1.1"
   id="svg1"
   width="199"
   height="164"
   viewBox="0 0 199 164"
   sodipodi:docname="6b.svg"
   inkscape:version="1.4.2 (f4327f4, 2025-05-13)"
   xmlns:inkscape="http://www.inkscape.org/namespaces/inkscape"
   xmlns:sodipodi="http://sodipodi.sourceforge.net/DTD/sodipodi-0.dtd"
   xmlns="http://www.w3.org/2000/svg"
   xmlns:svg="http://www.w3.org/2000/svg">
  <defs
     id="defs1" />
  <sodipodi:namedview
     id="namedview1"
     pagecolor="#ffffff"
     bordercolor="#000000"
     borderopacity="0.25"
     inkscape:showpageshadow="2"
     inkscape:pageopacity="0.0"
     inkscape:pagecheckerboard="0"
     inkscape:deskcolor="#d1d1d1"
     inkscape:zoom="4.6890244"
     inkscape:cx="99.487646"
     inkscape:cy="82"
     inkscape:window-width="1920"
     inkscape:window-height="989"
     inkscape:window-x="-9"
     inkscape:window-y="-9"
     inkscape:window-maximized="1"
     inkscape:current-layer="g1" />
  <g
     inkscape:groupmode="layer"
     inkscape:label="Image"
     id="g1">
    <path
       style="fill:#ff00ff;stroke-width:1.13815"
       d="m 86.114052,119.04756 c -17.631518,-0.27786 -19.687821,-0.40471 -20.494303,-1.26427 -0.722023,-0.76955 -0.972155,-2.49244 -1.28568,-8.85569 -1.895366,-38.467982 -1.610691,-44.673361 2.087985,-45.514376 7.4808,-1.701003 25.442903,-2.260323 46.045016,-1.43379 19.67536,0.789354 24.12454,1.233816 24.99142,2.496584 1.48238,2.159352 2.00004,8.367415 2.00945,24.098037 0.008,14.166735 -0.4969,22.738005 -1.6247,27.554945 -0.16285,0.69556 -1.02865,1.69184 -1.92399,2.21393 -1.42199,0.82919 -3.43539,0.95332 -15.91761,0.98137 -7.85934,0.0177 -23.108756,-0.10683 -33.887588,-0.27674 z m 48.586938,-2.00317 c 1.03063,-0.65141 1.94396,0.37419 -11.84635,-13.3024 -8.81274,-8.740067 -10.94505,-10.740094 -11.45046,-10.740094 -0.22952,0 -2.10537,1.743461 -4.16855,3.874355 -2.0632,2.130903 -4.15778,3.874359 -4.65465,3.874359 -1.1794,0 -3.437797,-1.511532 -7.834228,-5.243399 l -3.573178,-3.03306 -2.343899,2.369622 c -4.373561,4.421554 -17.282311,17.242267 -19.561779,19.428367 -1.247449,1.19636 -2.268089,2.34918 -2.268089,2.56182 0,0.21264 9.269707,0.41089 20.599349,0.44055 11.329639,0.0297 20.741374,0.20595 20.914944,0.39174 0.55376,0.59276 25.19085,0.007 26.18689,-0.62186 z m -64.239654,-6.27974 c 1.954381,-1.95042 5.078981,-5.06375 6.943556,-6.91849 C 87.004093,94.29752 89.907546,91.172974 89.515293,90.813563 87.314744,88.797255 75.784123,77.533187 72.715691,74.402316 70.572234,72.215242 68.06653,69.761935 67.147459,68.950522 l -1.671038,-1.475298 -0.358225,1.520269 c -0.668308,2.836233 0.650569,45.767147 1.396916,45.471167 0.216043,-0.0857 1.991843,-1.75158 3.946224,-3.70201 z m 67.321024,-9.44962 c 0.57943,-10.829619 0.0342,-32.728821 -0.85283,-34.257669 -0.43378,-0.747603 -0.17755,-1.016622 -5.23631,5.497586 -1.71477,2.208118 -6.62523,7.23141 -10.91214,11.162871 -4.28691,3.931461 -7.79439,7.341004 -7.79439,7.576761 0,0.235758 3.27365,3.62012 7.27476,7.520798 4.00112,3.900683 9.23542,9.107443 11.63178,11.570563 4.27452,4.39362 4.36605,4.45242 4.83406,3.10565 0.26236,-0.75502 0.73715,-6.23448 1.05507,-12.17656 z m -30.61481,-6.791065 c 2.44194,-2.511415 6.62088,-6.558637 9.28652,-8.993827 6.48023,-5.919989 16.76743,-16.891617 17.76557,-18.947569 l 0.80274,-1.653459 -5.04215,-0.359916 C 117.40895,63.671835 96.511236,63.100449 87.265213,63.401277 76.44371,63.753364 67.533119,64.583909 66.828574,65.30615 c -0.407161,0.417389 13.407056,14.433847 23.973453,24.324426 4.990844,4.671635 10.824883,9.459594 11.526323,9.459594 0.21962,0 2.39725,-2.054793 4.8392,-4.566205 z m -9.430243,-3.483672 c -4.073234,-3.261392 -6.317503,-6.491707 -6.307427,-9.078663 0.01094,-2.809452 1.011615,-4.583702 3.241011,-5.746514 1.610546,-0.84003 2.241168,-0.907224 3.700348,-0.394274 0.967428,0.34008 2.168781,1.10068 2.669681,1.690224 0.89913,1.058256 0.93134,1.056241 2.53105,-0.158347 3.1221,-2.370469 8.11566,-1.099245 8.11566,2.066027 0,3.073008 -5.63442,11.544244 -8.8601,13.320985 -0.81444,0.448605 -1.58617,0.815644 -1.71495,0.815644 -0.12877,0 -1.647636,-1.131786 -3.375273,-2.515082 z m 8.717053,-4.417495 c 1.26269,-1.556724 2.60715,-3.788333 2.98771,-4.959131 0.60853,-1.872233 0.58797,-2.251052 -0.17069,-3.143968 -1.20634,-1.419837 -2.23279,-1.275611 -5.04569,0.708957 l -2.44385,1.7242 -1.54695,-1.7242 c -2.864395,-3.192597 -7.253793,-1.708039 -7.253793,2.453341 0,1.983899 2.952698,5.955881 6.411294,8.624505 l 2.026389,1.56354 1.36988,-1.208419 c 0.75344,-0.664629 2.40301,-2.482101 3.6657,-4.038825 z"
       id="path1" />
  </g>
</svg>
